<?xml version="1.0" encoding="UTF-8"?>
<svg version="1.1" xmlns="http://www.w3.org/2000/svg" width="477" height="523" >
<path d="M0 0 C9.02233447 -1.65409465 15.83131578 3.06557933 23 8 C30.55362209 13.62563223 37.17703329 19.90637824 43.5 26.875 C44.2321875 27.67679688 44.964375 28.47859375 45.71875 29.3046875 C50.31326297 34.73313604 53.85552888 40.22371095 56.8125 46.6875 C57.14870361 47.4108252 57.48490723 48.13415039 57.83129883 48.87939453 C60.82664307 55.42088697 63.51984812 62.07760613 66.12231445 68.78393555 C67.73343631 72.92175447 69.43017735 76.98392925 71.30078125 81.01171875 C74.83552561 88.69623819 77.88677118 96.57560152 81 104.4375 C82.20696979 107.47840764 83.41550991 110.51868772 84.625 113.55859375 C84.91584473 114.2900914 85.20668945 115.02158905 85.50634766 115.7752533 C87.60046745 121.02989191 89.75582178 126.25671966 91.9453125 131.47241211 C93.34174513 134.81900169 94.67277438 138.18787804 96 141.5625 C97.7449723 145.97019992 99.56560935 150.32448628 101.5625 154.625 C103.26821466 158.3108503 104.81047399 162.01470613 106.25 165.8125 C108.65620293 172.15472818 111.15133726 178.45859868 113.6875 184.75 C114.0803418 185.7397583 114.47318359 186.7295166 114.87792969 187.74926758 C115.25208008 188.67247803 115.62623047 189.59568848 116.01171875 190.546875 C116.34647217 191.38057617 116.68122559 192.21427734 117.02612305 193.07324219 C117.84628565 195.17169069 117.84628565 195.17169069 120 196 C122.54753375 191.0868992 124.7882669 186.17329026 126.80859375 181.0234375 C130.36233139 172.00510001 133.99887567 163.02333138 138.125 154.25 C140.5984683 148.98157814 142.73571094 143.64404314 144.77734375 138.1953125 C145.98755327 135.03252851 147.29160683 131.92507749 148.625 128.8125 C150.80984635 123.63641289 152.52554904 118.41830759 154 113 C153.37867188 112.85691406 152.75734375 112.71382813 152.1171875 112.56640625 C149.41657047 111.84391645 148.42104131 111.44734893 147 109 C148.13414166 103.53496506 149.82452968 98.39359459 151.8125 93.1875 C152.04775391 92.55263672 152.28300781 91.91777344 152.52539062 91.26367188 C154.00389111 87.34816796 155.64710808 83.53970633 157.3984375 79.73828125 C160.07973611 73.90423032 162.4613617 67.97328893 164.8125 62 C168.47295689 52.77266942 172.23594706 43.59888176 176.11328125 34.4609375 C178.06436437 29.86144909 179.97484558 25.24572788 181.875 20.625 C182.16141357 19.92890625 182.44782715 19.2328125 182.74291992 18.515625 C184.17964193 15.01736894 185.60249641 11.51411096 187 8 C187.66 8 188.32 8 189 8 C189.144375 7.236875 189.28875 6.47375 189.4375 5.6875 C190 3 190 3 191 0 C197.965087 -0.57090877 202.29622397 0.65652902 208.51953125 3.80859375 C210.70689121 4.85921546 212.633178 5.52001512 215 6 C215 6.66 215 7.32 215 8 C216.98 8.495 216.98 8.495 219 9 C220.23663114 14.00721812 219.65579185 16.97149561 217.8125 21.75 C217.34585937 22.9771875 216.87921875 24.204375 216.3984375 25.46875 C215.70621094 27.21671875 215.70621094 27.21671875 215 29 C214.64164062 29.9178125 214.28328125 30.835625 213.9140625 31.78125 C213.26933942 33.41110996 212.61584971 35.03753266 211.953125 36.66015625 C211.32428585 38.20390483 210.70934854 39.75339919 210.109375 41.30859375 C208.14819531 46.36943455 205.95185411 51.28545149 203.625 56.1875 C200.38730154 63.02398173 197.54711365 69.97139881 194.78564453 77.01269531 C191.1180892 86.28985516 187.32206421 95.51710267 183.12109375 104.56640625 C181.99687825 107.00677647 180.93529437 109.46881461 179.875 111.9375 C176.92460642 118.4190733 176.92460642 118.4190733 175 120 C172.24653974 120.32297049 169.79044626 120.18298008 167 120 C163.99743824 125.80450693 161.44061387 131.66579581 159.0625 137.75 C156.53751165 144.16620287 153.94975154 150.54991538 151.2878418 156.91064453 C148.6362002 163.27156827 146.04882889 169.65904279 143.46582031 176.0480957 C141.22116636 181.59094765 138.96183724 187.12237357 136.60220337 192.61714172 C135.81388096 194.45512781 135.03408453 196.29676312 134.25439453 198.13842773 C133.27278852 200.45417043 132.27698281 202.7639602 131.26513672 205.06665039 C128.18293113 212.39795256 127.05295336 216.93298706 129.97265625 224.53125 C130.33230469 225.1809375 130.69195312 225.830625 131.0625 226.5 C131.42472656 227.1703125 131.78695313 227.840625 132.16015625 228.53125 C132.57587891 229.25828125 132.57587891 229.25828125 133 230 C141.42635957 227.01000144 148.53648368 222.00083114 155.70703125 216.79492188 C160.07313513 213.63277583 164.53338796 210.69041851 169.10546875 207.83203125 C172.52279691 205.66910695 175.88841847 203.43573814 179.25 201.1875 C179.88413818 200.76339844 180.51827637 200.33929688 181.17163086 199.90234375 C182.46813146 199.03463414 183.76443546 198.1666307 185.06054688 197.29833984 C187.58322366 195.60956906 190.10913635 193.9256832 192.63549805 192.24243164 C193.87684646 191.4152453 195.1178956 190.58760968 196.35864258 189.75952148 C199.56640283 187.61891395 202.77800303 185.48442591 205.99609375 183.359375 C207.31016925 182.48999647 208.62397607 181.62021166 209.9375 180.75 C210.56487061 180.33443848 211.19224121 179.91887695 211.83862305 179.49072266 C215.24702546 177.21784658 218.56319995 174.87355925 221.8125 172.375 C225 170 225 170 227 170 C226.67 169.01 226.34 168.02 226 167 C225.4375 163.75 225.4375 163.75 226 160 C228.35397117 157.23850762 230.97352164 154.99942044 234 153 C234.66 153 235.32 153 236 153 C236 152.34 236 151.68 236 151 C238.265625 149.30859375 238.265625 149.30859375 241.25 147.4375 C242.22453125 146.81746094 243.1990625 146.19742188 244.203125 145.55859375 C246.56819609 144.24062816 248.36190757 143.45852559 251 143 C251 142.34 251 141.68 251 141 C253.1396538 139.49743413 255.27283447 138.1113433 257.5 136.75 C262.19156912 133.81872598 266.73760637 130.85392068 271.05859375 127.38671875 C273.32760564 125.76599597 275.72661175 124.43437576 278.1550293 123.0690918 C281.08861309 121.36918926 283.88340214 119.46495993 286.6875 117.5625 C292.98970171 113.32687392 299.32638887 109.14664319 305.6875 105 C306.54883545 104.43611572 307.4101709 103.87223145 308.29760742 103.29125977 C309.11076416 102.76201904 309.9239209 102.23277832 310.76171875 101.6875 C311.48319092 101.21699219 312.20466309 100.74648437 312.94799805 100.26171875 C317.46787985 97.48256954 320.57115476 95.98784241 326 97 C328.86472025 99.64675241 330.89153071 102.73620506 333 106 C333.58523438 106.87398438 334.17046875 107.74796875 334.7734375 108.6484375 C339.67074424 116.3047903 339.67074424 116.3047903 339 121 C337.26662481 123.20760048 335.33849598 124.36305281 333 126 C332.34 126 331.68 126 331 126 C331 126.66 331 127.32 331 128 C329.171875 129.47265625 329.171875 129.47265625 326.75 131.0625 C325.96109375 131.58972656 325.1721875 132.11695313 324.359375 132.66015625 C322.18611716 133.89430764 320.43982072 134.54673055 318 135 C318 135.66 318 136.32 318 137 C315.91015625 138.515625 315.91015625 138.515625 313.0625 140.25 C308.54724878 143.03265482 304.13715925 145.91404703 299.77734375 148.93359375 C298 150 298 150 296 150 C296 150.66 296 151.32 296 152 C294.0491652 153.40670338 292.10780803 154.6804279 290.0625 155.9375 C288.77054148 156.74953584 287.47888794 157.56205706 286.1875 158.375 C285.50300781 158.80296875 284.81851562 159.2309375 284.11328125 159.671875 C280.57570241 161.89512233 277.06963183 164.16664319 273.5625 166.4375 C272.85601318 166.89286133 272.14952637 167.34822266 271.42163086 167.81738281 C267.81734759 170.14664523 264.23782862 172.50529346 260.69140625 174.921875 C260.0068335 175.3866626 259.32226074 175.8514502 258.61694336 176.33032227 C257.31800497 177.2153325 256.02302426 178.10618807 254.73266602 179.00366211 C250.33146968 182 250.33146968 182 247 182 C247 182.66 247 183.32 247 184 C240.64102564 185.34516765 240.64102564 185.34516765 237.5625 183.6875 C236 182 236 182 236 180 C234.68 180 233.36 180 232 180 C232 180.66 232 181.32 232 182 C229.48046875 183.69140625 229.48046875 183.69140625 226.1875 185.5625 C225.10855469 186.18253906 224.02960938 186.80257812 222.91796875 187.44140625 C220 189 220 189 217 190 C217 190.66 217 191.32 217 192 C214.65332744 193.58476589 212.30595634 195.05463371 209.875 196.5 C204.39147869 199.8360219 199.05879638 203.27679831 193.875 207.0625 C188.78818901 210.76986126 183.60110723 214.23472989 178.27368164 217.5859375 C173.19726463 220.80551303 168.33465832 224.29174359 163.52929688 227.90234375 C159.32181155 231 159.32181155 231 156 231 C156 231.66 156 232.32 156 233 C154.29565793 234.19303945 152.53435284 235.30532251 150.75 236.375 C147.01806974 238.61613272 143.96177279 240.79846465 141 244 C141.721875 244.40992188 142.44375 244.81984375 143.1875 245.2421875 C144.115625 245.78101563 145.04375 246.31984375 146 246.875 C146.928125 247.40867188 147.85625 247.94234375 148.8125 248.4921875 C149.534375 248.98976562 150.25625 249.48734375 151 250 C151 250.66 151 251.32 151 252 C151.804375 252.20625 152.60875 252.4125 153.4375 252.625 C158.05469793 254.40707639 162.16242583 256.86171712 166 260 C166 260.66 166 261.32 166 262 C166.88816406 262.2578125 167.77632813 262.515625 168.69140625 262.78125 C172.00257992 264.00095034 174.15803887 265.35722428 176.9375 267.5 C181.35353587 270.8120269 185.83578462 273.95559921 190.4375 277 C191.07292725 277.42039551 191.70835449 277.84079102 192.36303711 278.27392578 C193.6308641 279.11181374 194.89900781 279.94922266 196.16748047 280.78613281 C197.9101947 281.94051266 199.64595014 283.10447332 201.37890625 284.2734375 C206.49247353 287.71661547 211.58675293 291.04731978 217 294 C217 294.66 217 295.32 217 296 C217.70511719 296.2578125 218.41023438 296.515625 219.13671875 296.78125 C222.24269315 298.10330186 224.95978065 299.69747854 227.8125 301.5 C228.78832031 302.1084375 229.76414062 302.716875 230.76953125 303.34375 C231.50558594 303.8903125 232.24164063 304.436875 233 305 C233 305.66 233 306.32 233 307 C233.55453857 307.09804932 234.10907715 307.19609863 234.68041992 307.29711914 C237.56288044 308.17056444 239.61787995 309.55799491 242.11328125 311.24609375 C243.10739014 311.91423096 244.10149902 312.58236816 245.12573242 313.27075195 C246.70318237 314.34329224 246.70318237 314.34329224 248.3125 315.4375 C249.38669189 316.16090576 250.46088379 316.88431152 251.56762695 317.62963867 C253.72008916 319.07931543 255.87107429 320.53118796 258.02050781 321.98535156 C261.90008072 324.60860915 265.7916904 327.21344637 269.6875 329.8125 C270.26733643 330.20171631 270.84717285 330.59093262 271.44458008 330.99194336 C273.89077448 332.62823669 276.33142183 334.18740317 278.89453125 335.63671875 C279.58933594 336.08660156 280.28414063 336.53648437 281 337 C281 337.66 281 338.32 281 339 C281.99 339 282.98 339 284 339 C284 339.66 284 340.32 284 341 C284.54011719 341.08378906 285.08023437 341.16757812 285.63671875 341.25390625 C288.83093218 342.26232735 291.08919081 343.98836424 293.8125 345.9375 C294.97564182 346.76171748 296.13974239 347.58458325 297.3046875 348.40625 C297.91022461 348.83421875 298.51576172 349.2621875 299.13964844 349.703125 C302.20159205 351.83764527 305.32142298 353.8832244 308.4375 355.9375 C336.0211771 374.208922 336.0211771 374.208922 341 380 C341 385.71769069 337.86302824 390.24589407 335 395 C334.34 395 333.68 395 333 395 C332.9175 395.515625 332.835 396.03125 332.75 396.5625 C331.67859775 400.04455732 329.86476395 402.87200885 328 406 C327.34 406 326.68 406 326 406 C326 406.99 326 407.98 326 409 C325.34 409 324.68 409 324 409 C323.77054687 409.67933594 323.54109375 410.35867188 323.3046875 411.05859375 C321.66614757 414.75266732 319.49472567 417.80499081 317.125 421.0625 C316.69058594 421.67416016 316.25617188 422.28582031 315.80859375 422.91601562 C310.77810889 429.90280015 310.77810889 429.90280015 308 432 C303.5363179 431.97775574 300.29458449 429.53655705 296.625 427.1875 C295.47837214 426.46143741 294.33124051 425.73616975 293.18359375 425.01171875 C292.13300781 424.34785156 291.08242188 423.68398438 290 423 C287.68321992 421.63253469 285.3491824 420.31117157 283 419 C283 418.34 283 417.68 283 417 C282.484375 416.9175 281.96875 416.835 281.4375 416.75 C277.95544268 415.67859775 275.12799115 413.86476395 272 412 C272 411.34 272 410.68 272 410 C270.94232422 409.61714844 270.94232422 409.61714844 269.86328125 409.2265625 C266.71714494 407.87883153 264.05646093 406.24433555 261.1875 404.375 C260.60347412 403.99529053 260.01944824 403.61558105 259.41772461 403.22436523 C250.15408511 397.17637723 240.97042254 391.00501594 231.77441406 384.85498047 C227.57916781 382.0500279 223.37990122 379.25111967 219.17919922 376.4543457 C216.15115841 374.43750777 213.1275764 372.41435162 210.109375 370.3828125 C208.80231696 369.50486042 207.49502798 368.62725205 206.1875 367.75 C205.56601074 367.33250488 204.94452148 366.91500977 204.30419922 366.48486328 C199.85991109 363.52002559 195.32436346 360.76517241 190.66015625 358.15625 C190.11230469 357.7746875 189.56445312 357.393125 189 357 C189 356.34 189 355.68 189 355 C187.68 354.67 186.36 354.34 185 354 C185.45439453 355.18142578 185.45439453 355.18142578 185.91796875 356.38671875 C186.33691406 357.47597656 186.75585938 358.56523437 187.1875 359.6875 C187.64511719 360.87472656 188.10273438 362.06195313 188.57421875 363.28515625 C189.47972511 365.64443448 190.37891148 368.00615571 191.26953125 370.37109375 C193.54167077 376.37964048 195.94429446 382.26631112 198.69140625 388.07421875 C200.59475724 392.32977067 202.28557683 396.66553343 204 401 C204.65443596 402.64343313 205.30937517 404.28666595 205.96484375 405.9296875 C206.28743164 406.73873535 206.61001953 407.5477832 206.94238281 408.38134766 C209.8845278 415.75403384 212.85189996 423.11229859 215.9296875 430.4296875 C216.94133249 432.85911233 217.9130123 435.30056913 218.875 437.75 C220.33527197 441.43910814 221.9067265 445.06595729 223.52050781 448.68945312 C226.5964678 455.6013547 229.33689475 462.53349962 231.81640625 469.6875 C234.01110648 475.82976336 236.62340953 481.80434355 239.203125 487.79296875 C239.75226563 489.10201172 239.75226563 489.10201172 240.3125 490.4375 C240.63863281 491.19933594 240.96476562 491.96117187 241.30078125 492.74609375 C242.14821947 495.47778009 242.5522488 497.16691874 242 500 C237.55775443 503.7780513 232.23766219 505.76028692 226.875 507.9375 C226.03114746 508.28594971 225.18729492 508.63439941 224.31787109 508.9934082 C222.63936498 509.6862295 220.95986473 510.37664806 219.27929688 511.06445312 C216.38598703 512.25202417 213.50599053 513.47039705 210.625 514.6875 C205.30212328 516.90850231 199.91991942 518.9600302 194.51953125 520.984375 C192.10153653 521.76797561 192.10153653 521.76797561 191 523 C188.32941149 523.14115161 185.67567762 523.04247107 183 523 C177.82313061 512.80637058 172.87984112 502.68767828 169.08349609 491.89428711 C168.06380383 489.17043587 166.92137697 486.57003881 165.6875 483.9375 C162.42788614 476.8399537 159.60360474 469.58418083 156.75 462.31640625 C154.38606534 456.34008395 151.88003278 450.46998902 149.1875 444.63476562 C147.31465678 440.47939474 145.65937867 436.24406765 144 432 C141.90447216 426.69211321 139.80207024 421.41731084 137.375 416.25 C135.47290766 412.17588141 133.85738725 408.03206232 132.3125 403.8125 C128.61449769 393.72320995 124.40678561 383.84663327 120.23779297 373.94506836 C118.54588055 369.91951817 116.86810668 365.88812797 115.18969727 361.85693359 C109.43527643 347.91075874 109.43527643 347.91075874 103.3125 334.125 C101.53228031 330.28472676 99.98678454 326.40072443 98.5 322.4375 C96.61010111 317.40976898 94.43943701 312.66614157 91.91796875 307.92578125 C91 306 91 306 91 304 C90.34 304 89.68 304 89 304 C88.62617188 305.18980469 88.25234375 306.37960937 87.8671875 307.60546875 C85.63086219 314.31051211 82.85234369 320.79680737 80.125 327.3125 C79.60257506 328.56693676 79.08043813 329.8214935 78.55859375 331.07617188 C77.53435535 333.53744256 76.50757255 335.99760132 75.47949219 338.45727539 C74.51354389 340.7702912 73.55051967 343.08453093 72.59082031 345.40014648 C72.15608398 346.44887939 71.72134766 347.4976123 71.2734375 348.578125 C70.89364746 349.49625977 70.51385742 350.41439453 70.12255859 351.36035156 C68.96658735 354.07856842 67.74582615 356.75940973 66.5 359.4375 C64.18003268 364.47617901 62.21240614 369.61290535 60.25390625 374.80078125 C58.70938874 378.74146611 56.9584023 382.56319223 55.1796875 386.40234375 C53.2998705 390.5416759 51.65736204 394.76780766 50 399 C44.37290915 413.30218924 44.37290915 413.30218924 41.375 419.75 C39.31975506 424.17466744 37.64909756 428.65958683 36.02734375 433.2578125 C34.63640821 436.97049975 32.95842602 440.52503038 31.28515625 444.1171875 C29.90721825 447.20812441 28.69393228 450.33364668 27.5 453.5 C25.56641255 458.62370177 23.43420447 463.60313313 21.11328125 468.5625 C19.99373662 471.01371352 18.98133277 473.49065592 18 476 C18.71800781 476.11472656 19.43601563 476.22945313 20.17578125 476.34765625 C23.13905427 477.03211904 25.4826209 478.05846179 28.1875 479.4375 C29.47720703 480.08525391 29.47720703 480.08525391 30.79296875 480.74609375 C33 482 33 482 35 484 C35.125 487.625 35.125 487.625 35 491 C31.86239495 492.69600273 29.78901939 493.2237862 26.328125 492.2421875 C24.43339126 491.50989852 22.55080888 490.7451692 20.68359375 489.9453125 C17.90704299 488.96725532 15.91212785 488.92622894 13 489 C12.72325439 489.64437012 12.44650879 490.28874023 12.16137695 490.95263672 C10.88143609 493.92806635 9.59699391 496.90153324 8.3125 499.875 C7.87744141 500.88820313 7.44238281 501.90140625 6.99414062 502.9453125 C-0.67915784 520.67915784 -0.67915784 520.67915784 -3 523 C-4.8125 523.1328125 -4.8125 523.1328125 -7 523.125 C-7.721875 523.12757813 -8.44375 523.13015625 -9.1875 523.1328125 C-11 523 -11 523 -12 522 C-12.6866029 510.91854855 -6.44173786 499.70293712 -2.015625 489.796875 C-0.76287863 486.98410485 0 485.12499418 0 482 C-1.26457031 481.40251953 -1.26457031 481.40251953 -2.5546875 480.79296875 C-3.65039062 480.26316406 -4.74609375 479.73335938 -5.875 479.1875 C-6.96554688 478.66542969 -8.05609375 478.14335937 -9.1796875 477.60546875 C-12 476 -12 476 -14 473 C-13.44444444 467.44444444 -13.44444444 467.44444444 -12 466 C-5.15454403 465.23939378 0.63786771 467.65990536 7 470 C7.17160645 469.45907715 7.34321289 468.9181543 7.52001953 468.36083984 C9.37070288 462.65446412 11.51734394 457.13916401 13.875 451.625 C14.22868652 450.7899292 14.58237305 449.9548584 14.94677734 449.09448242 C16.77333559 444.80094406 18.64921433 440.53991156 20.625 436.3125 C22.56580225 432.11495096 24.21796846 427.83818002 25.8125 423.5 C29.91470886 412.3410232 34.48206892 401.34175937 39.5 390.5625 C42.26680416 384.58956805 44.63209543 378.45896685 47.05200195 372.33984375 C49.17236631 367.00048586 51.42689912 361.76018589 53.859375 356.5546875 C55.64068941 352.56503125 57.14085972 348.47327128 58.68359375 344.38671875 C60.50785088 339.69345188 62.5263946 335.09098387 64.53125 330.47265625 C65.93534755 327.15286178 67.2331532 323.81169773 68.5 320.4375 C70.16633344 316.03132985 71.99420788 311.76230824 74 307.5 C79.60091585 296.66560217 79.60091585 296.66560217 82 285 C70.12382232 290.42421577 59.14341441 297.65846496 48.5390625 305.23046875 C43.74674869 308.57034284 38.79404321 311.66710983 33.8671875 314.80322266 C31.9244017 316.04845487 29.99252474 317.30930876 28.0625 318.57421875 C27.4240918 318.99074707 26.78568359 319.40727539 26.12792969 319.83642578 C24.89717297 320.63996975 23.6685688 321.44682257 22.44238281 322.25732422 C18.22458226 325 18.22458226 325 16 325 C16 325.66 16 326.32 16 327 C14.20703125 328.40234375 14.20703125 328.40234375 11.8125 329.9375 C11.03519531 330.44152344 10.25789062 330.94554687 9.45703125 331.46484375 C7.88494337 332.44708626 6.30359435 333.41475354 4.7109375 334.36328125 C1.03014089 336.58554894 -2.57741461 338.91507128 -6.1875 341.25 C-6.9405542 341.73581543 -7.6936084 342.22163086 -8.46948242 342.72216797 C-13.42204138 345.93236678 -18.27358489 349.24665219 -23.01953125 352.7578125 C-25.03181878 354.01995734 -26.67713923 354.57196723 -29 355 C-29 355.66 -29 356.32 -29 357 C-31.10019014 358.47309111 -33.17767729 359.81309635 -35.375 361.125 C-35.97828125 361.49753906 -36.5815625 361.87007813 -37.203125 362.25390625 C-41.72965316 365 -41.72965316 365 -44 365 C-44 365.66 -44 366.32 -44 367 C-46.30457836 368.56601003 -48.60892939 370.0139162 -51 371.4375 C-57.77391477 375.55067125 -64.32450806 379.89585508 -70.76953125 384.50756836 C-73.8297979 386.66334398 -76.33240712 388.25199093 -80 389 C-80 389.66 -80 390.32 -80 391 C-81.62626404 392.38232443 -83.2925002 393.71937515 -85 395 C-84.505 395.763125 -84.01 396.52625 -83.5 397.3125 C-82 400 -82 400 -82 403 C-81.34 403 -80.68 403 -80 403 C-77.978171 407.04365799 -77.80849079 409.63113288 -79 414 C-81.98211558 415.49105779 -83.68534705 415.50994661 -87 415 C-89.98885013 412.48743315 -92.62338465 409.70242387 -93.48046875 405.828125 C-93.65191406 405.22484375 -93.82335937 404.6215625 -94 404 C-97.28976808 402.90341064 -98.71303767 403.20046862 -102 404 C-102 404.66 -102 405.32 -102 406 C-102.76570313 406.4021875 -102.76570313 406.4021875 -103.546875 406.8125 C-109.3734554 409.95306816 -114.83782244 413.49566161 -120.30078125 417.23046875 C-127.18154312 421.74130106 -127.18154312 421.74130106 -132 421 C-133.875 419.3125 -133.875 419.3125 -135 417 C-134.9375 414.65625 -134.9375 414.65625 -134 412 C-132.05578597 410.17476026 -130.28106877 408.70482709 -128.125 407.1875 C-127.58230469 406.78080078 -127.03960937 406.37410156 -126.48046875 405.95507812 C-122.41785714 403 -122.41785714 403 -119 403 C-119 402.34 -119 401.68 -119 401 C-116.07572366 399.01149209 -113.09632133 397.18198434 -110.06445312 395.36523438 C-106.05040899 393.02821695 -106.05040899 393.02821695 -104 389 C-104.66 389 -105.32 389 -106 389 C-107.7265625 386.55078125 -107.7265625 386.55078125 -109.625 383.3125 C-110.25664063 382.25675781 -110.88828125 381.20101563 -111.5390625 380.11328125 C-112.9901849 377.02091613 -113.59789673 375.34704933 -113 372 C-109.1496895 369.43312633 -107.41430237 370.16711276 -103 371 C-103 371.66 -103 372.32 -103 373 C-102.34 373 -101.68 373 -101 373 C-99.4921875 374.8984375 -99.4921875 374.8984375 -97.875 377.375 C-97.33617187 378.18710937 -96.79734375 378.99921875 -96.2421875 379.8359375 C-95 382 -95 382 -95 384 C-91.20753695 382.65276623 -88.37172926 380.94709272 -85.1875 378.5 C-79.94449391 374.59427886 -74.50705548 371.14715991 -68.93359375 367.73486328 C-63.77403261 364.55090996 -58.93193815 361.11418178 -54.13671875 357.3984375 C-52 356 -52 356 -49 356 C-49 355.34 -49 354.68 -49 354 C-47.06176758 352.58544922 -47.06176758 352.58544922 -44.33203125 350.9296875 C-40.00706389 348.25486366 -35.73768126 345.52438238 -31.51171875 342.6953125 C-30.95961731 342.32593063 -30.40751587 341.95654877 -29.83868408 341.57597351 C-28.70233704 340.81546034 -27.56627209 340.05452552 -26.43048096 339.29318237 C-10.67826827 328.73571924 -10.67826827 328.73571924 -3.125 323.9375 C2.09728606 320.61013939 7.18551896 317.12340739 12.26171875 313.578125 C16.92380561 310.3432604 21.65113848 307.20613139 26.375 304.0625 C27.2834668 303.45792969 28.19193359 302.85335938 29.12792969 302.23046875 C32.46806987 300.00930551 35.80940365 297.78994865 39.15185547 295.57226562 C48.8365913 289.14619246 58.43884496 282.60863016 68 276 C66.77322572 275.05937158 65.54344965 274.12265768 64.3125 273.1875 C63.62800781 272.66542969 62.94351563 272.14335937 62.23828125 271.60546875 C59.89436779 269.92423239 57.47677038 268.47807265 55 267 C52.68014855 265.46817914 50.36811087 263.92789939 48.0625 262.375 C44.04122906 259.67041064 40.01162241 256.98978894 35.90625 254.4140625 C35.26034912 254.00752441 34.61444824 253.60098633 33.94897461 253.18212891 C32.70874373 252.40495822 31.46484213 251.6336094 30.21704102 250.86865234 C28.77728888 249.96454903 27.38298399 248.98875897 26 248 C26 247.34 26 246.68 26 246 C25.38125 245.855625 24.7625 245.71125 24.125 245.5625 C22 245 22 245 20 244 C20 243.34 20 242.68 20 242 C19.28739014 241.740979 18.57478027 241.48195801 17.84057617 241.21508789 C14.82342622 239.92446861 12.28679307 238.36821871 9.55078125 236.55859375 C8.53822266 235.89279297 7.52566406 235.22699219 6.48242188 234.54101562 C4.91331055 233.49977539 4.91331055 233.49977539 3.3125 232.4375 C1.2258118 231.06036208 -0.86140106 229.6840187 -2.94921875 228.30859375 C-3.87049561 227.69814209 -4.79177246 227.08769043 -5.7409668 226.45874023 C-7.91221355 224.99826633 -7.91221355 224.99826633 -10 224 C-10 223.34 -10 222.68 -10 222 C-10.71542969 221.731875 -11.43085937 221.46375 -12.16796875 221.1875 C-15.04128939 219.98268693 -17.63337626 218.58762888 -20.3125 217 C-21.63701172 216.2265625 -21.63701172 216.2265625 -22.98828125 215.4375 C-23.65214844 214.963125 -24.31601563 214.48875 -25 214 C-25 213.34 -25 212.68 -25 212 C-25.825 211.79375 -26.65 211.5875 -27.5 211.375 C-31.29869319 209.88265625 -33.92012969 207.96367889 -37.09765625 205.45703125 C-39.11458069 203.84925689 -39.11458069 203.84925689 -42 202.25 C-42.66 201.8375 -43.32 201.425 -44 201 C-44 200.34 -44 199.68 -44 199 C-44.55236328 198.90340088 -45.10472656 198.80680176 -45.67382812 198.70727539 C-48.59496095 197.8191014 -50.68904427 196.39437682 -53.21875 194.68359375 C-54.23453125 194.00103516 -55.2503125 193.31847656 -56.296875 192.61523438 C-57.88242188 191.53725586 -57.88242188 191.53725586 -59.5 190.4375 C-60.52609375 189.74591797 -61.5521875 189.05433594 -62.609375 188.34179688 C-64.68911658 186.9400615 -66.76739703 185.53615594 -68.84423828 184.13012695 C-72.98736496 181.33353247 -77.14949156 178.56594382 -81.31396484 175.80126953 C-84.75448333 173.49403945 -88.15009826 171.12752786 -91.53125 168.734375 C-93.29025673 167.49861711 -95.06265651 166.28183104 -96.84375 165.078125 C-97.7615625 164.45421875 -98.679375 163.8303125 -99.625 163.1875 C-100.46289062 162.62417969 -101.30078125 162.06085938 -102.1640625 161.48046875 C-102.76992187 160.99191406 -103.37578125 160.50335938 -104 160 C-104 159.34 -104 158.68 -104 158 C-104.87785156 157.60554688 -104.87785156 157.60554688 -105.7734375 157.203125 C-112.39190312 153.6268313 -116.93352973 146.99144666 -121.25 141 C-121.6620166 140.43120117 -122.0740332 139.86240234 -122.49853516 139.27636719 C-130.61212779 127.73250414 -137.66914402 112.31136446 -136 98 C-132.27799542 95.60044399 -128.58099592 95.67736797 -124.296875 95.6640625 C-123.54142395 95.6574057 -122.7859729 95.6507489 -122.00762939 95.64389038 C-120.40387393 95.63377133 -118.80007642 95.62907313 -117.19628906 95.62939453 C-114.79936962 95.62508869 -112.40439784 95.58895607 -110.0078125 95.55078125 C-96.68476313 95.4515588 -83.75030847 97.21642371 -71.875 103.6875 C-71.22885742 104.02346191 -70.58271484 104.35942383 -69.91699219 104.70556641 C-64.0269658 107.83437369 -58.42996139 111.41014437 -52.890625 115.1171875 C-50.62559069 116.59252066 -48.44812987 117.87100807 -46 119 C-46 119.66 -46 120.32 -46 121 C-44.97132812 121.36351563 -44.97132812 121.36351563 -43.921875 121.734375 C-40.45166402 123.23751451 -37.39576281 125.17614431 -34.25 127.25 C-33.19631226 127.93727173 -33.19631226 127.93727173 -32.12133789 128.63842773 C-26.76087105 132.14928364 -21.43339757 135.70960149 -16.10546875 139.26953125 C-15.39873016 139.74153961 -14.69199158 140.21354797 -13.96383667 140.69985962 C-10.39990445 143.08067642 -6.83810348 145.4645654 -3.28027344 147.85449219 C4.82343058 153.28702922 13.00213718 158.57191935 21.29663086 163.70874023 C21.89329559 164.08006073 22.48996033 164.45138123 23.10470581 164.83395386 C24.47695038 165.678203 25.85797421 166.50823687 27.24417114 167.32937622 C27.9777182 167.76990326 28.71126526 168.2104303 29.46704102 168.66430664 C30.14211197 169.06339737 30.81718292 169.4624881 31.51271057 169.87367249 C32.00351608 170.24536057 32.49432159 170.61704865 33 171 C33 171.66 33 172.32 33 173 C33.99 173 34.98 173 36 173 C34.60648376 169.41576143 33.20974277 165.83278732 31.8125 162.25 C31.42513672 161.25355469 31.03777344 160.25710937 30.63867188 159.23046875 C27.85934399 152.10987665 24.95792064 145.04798636 22 138 C20.25317934 133.80774902 18.5106508 129.61372822 16.77050781 125.41870117 C16.25746982 124.18276078 15.74379937 122.94708271 15.22949219 121.71166992 C12.08154958 114.1488078 9.02147716 106.56219885 6.10864258 98.90551758 C5.34283576 96.89849997 4.56521396 94.89596488 3.77807617 92.8972168 C2.98388846 90.8784119 2.21783391 88.84847166 1.46875 86.8125 C0.40609997 83.95433786 -0.81842469 81.20677781 -2.09375 78.4375 C-7.58810709 65.73398647 -8.81429239 53.85468821 -8.875 40.1875 C-8.89284042 38.96296112 -8.89284042 38.96296112 -8.91104126 37.71368408 C-9.03792573 24.74410427 -7.37118752 11.05678128 0 0 Z M7 13 C-0.3933479 27.11457327 0.16929182 47.39438847 4.71728516 62.36035156 C7.53728698 71.00042745 10.68818102 79.54421437 14.15625 87.9453125 C15.51999468 91.26628334 16.75320713 94.63365925 18 98 C19.32 98 20.64 98 22 98 C22.45439453 96.62328125 22.45439453 96.62328125 22.91796875 95.21875 C25.2932577 88.26098053 27.75527445 82.06389365 32 76 C38.3784069 76.51934276 43.60049419 78.1364003 49.5 80.5625 C50.32242188 80.89185547 51.14484375 81.22121094 51.9921875 81.56054688 C53.99818913 82.36528009 55.99959345 83.18145758 58 84 C59.2694949 82.01946857 59.2694949 82.01946857 58.390625 79.8046875 C55.35612793 72.01060256 52.00285759 64.37259324 48.5625 56.75 C48.10842773 55.73276855 47.65435547 54.71553711 47.18652344 53.66748047 C44.36097392 47.48973767 41.41105331 41.2292524 37 36 C36.34 36 35.68 36 35 36 C34.60554688 35.12214844 34.60554688 35.12214844 34.203125 34.2265625 C30.57844615 27.51855293 23.81668533 22.93839225 17.75 18.5625 C17.14768555 18.12534668 16.54537109 17.68819336 15.92480469 17.23779297 C13.03753963 15.2054479 10.54769661 13.4829785 7 13 Z M198 13 C197.15973604 14.76755526 196.32801278 16.53917263 195.5 18.3125 C195.0359375 19.29863281 194.571875 20.28476562 194.09375 21.30078125 C192.81222528 23.97800126 192.81222528 23.97800126 193 27 C196.96 28.98 196.96 28.98 201 31 C201.81674796 29.25197854 202.62823451 27.50149811 203.4375 25.75 C203.88996094 24.77546875 204.34242188 23.8009375 204.80859375 22.796875 C205.78382356 20.50748305 206.4974274 18.42621254 207 16 C203.55930376 13.70620251 202.27709699 13 198 13 Z M187 39 C183.66752182 45.1999082 183.66752182 45.1999082 182 52 C182.99 52.33 183.98 52.66 185 53 C185 53.66 185 54.32 185 55 C186.98 55 188.96 55 191 55 C191.86355778 53.04578965 192.71559934 51.08648653 193.5625 49.125 C194.27599609 47.48917969 194.27599609 47.48917969 195.00390625 45.8203125 C195.33261719 44.88960937 195.66132813 43.95890625 196 43 C195.14092555 40.76778305 195.14092555 40.76778305 192.625 39.875 C189.98682384 38.84188612 189.98682384 38.84188612 187 39 Z M177 64 C173.93757784 68.84060277 172.46588495 72.29290936 172 78 C174.64 78.99 177.28 79.98 180 81 C182.16099373 78.83900627 182.71563716 77.4789582 183.6875 74.625 C184.09548828 73.46871094 184.09548828 73.46871094 184.51171875 72.2890625 C185.0503714 69.76385889 184.93466233 68.3914824 184 66 C181.41847698 64.27898465 180.15081975 64 177 64 Z M38 88 C28.68163837 104.1766105 28.68163837 104.1766105 28 122 C28.9580253 123.36380545 29.95158151 124.70439341 31 126 C31.29132813 125.20078125 31.58265625 124.4015625 31.8828125 123.578125 C34.79336667 115.78003646 38.13555438 108.37033443 42 101 C49.1486135 100.18765756 54.5837806 103.1153237 61 106 C64.00268172 107.30437194 65.70383925 108 69 108 C67.22321644 102.34659777 64.37040088 99.33378242 59.3203125 96.4921875 C56.23945383 94.93215983 53.13409505 93.44986653 50 92 C49.11699219 91.58105469 48.23398438 91.16210938 47.32421875 90.73046875 C42.85398538 88.59022269 42.85398538 88.59022269 38 88 Z M166 89 C165.16013916 90.93467942 164.32831973 92.87285129 163.5 94.8125 C163.0359375 95.89144531 162.571875 96.97039062 162.09375 98.08203125 C160.82450697 100.94882024 160.82450697 100.94882024 161 104 C165.455 104.99 165.455 104.99 170 106 C172.53634391 101.25458237 174.45734262 97.42657378 175 92 C172.03 91.01 169.06 90.02 166 89 Z M-123 107 C-123.46151956 112.32395781 -121.92791035 116.01470459 -119.5 120.625 C-119.1397876 121.32286621 -118.7795752 122.02073242 -118.40844727 122.73974609 C-111.71906247 135.47575076 -111.71906247 135.47575076 -101.73828125 145.62109375 C-100 147 -100 147 -97.6953125 149.36328125 C-94.84468614 152.15193747 -91.81859825 154.47109894 -88.5625 156.75 C-87.96211914 157.17394043 -87.36173828 157.59788086 -86.74316406 158.03466797 C-82.2998095 161.1473244 -77.79816054 164.16783324 -73.25 167.125 C-72.65388916 167.51526367 -72.05777832 167.90552734 -71.44360352 168.30761719 C-68.46181749 170.36284846 -68.46181749 170.36284846 -65 171 C-65.13277344 170.21238281 -65.26554687 169.42476562 -65.40234375 168.61328125 C-66.77436964 160.15078579 -68 151.59302834 -68 143 C-65.00085281 142.34998322 -62.00078199 141.70488963 -59 141.0625 C-58.16082031 140.88009766 -57.32164063 140.69769531 -56.45703125 140.50976562 C-51.31357169 139.41329169 -46.22798341 138.57483614 -41 138 C-44.5699316 134.18178369 -48.29245837 131.3077526 -52.75 128.5625 C-54.00572225 127.77555904 -55.26093176 126.98779931 -56.515625 126.19921875 C-57.11826172 125.82200684 -57.72089844 125.44479492 -58.34179688 125.05615234 C-60.43698242 123.72167462 -62.46625316 122.30091649 -64.5 120.875 C-78.35886757 111.66984811 -106.49037468 98.74518734 -123 107 Z M320 110 C317.81349577 110.92245148 317.81349577 110.92245148 315.5 112.3125 C314.30890625 112.98732422 314.30890625 112.98732422 313.09375 113.67578125 C310.89355218 114.96001792 310.89355218 114.96001792 309 117 C309.33693943 120.36939433 310.88819408 122.42910583 313 125 C318.08938811 123.40956621 321.87456643 120.2553049 326 117 C323.62370911 112.85329961 323.62370911 112.85329961 320 110 Z M48 113 C47.52949219 114.14597656 47.05898437 115.29195313 46.57421875 116.47265625 C45.94533983 118.0026154 45.31643205 119.53256269 44.6875 121.0625 C44.37876953 121.81466797 44.07003906 122.56683594 43.75195312 123.34179688 C43.44580078 124.08623047 43.13964844 124.83066406 42.82421875 125.59765625 C42.51919434 126.34160645 42.21416992 127.08555664 41.89990234 127.85205078 C41.32997336 129.21239673 40.74366013 130.5660899 40.13525391 131.90966797 C37.73340668 137.21417312 36.40373585 140.91755867 38.0390625 146.62890625 C38.55311471 147.945894 39.08251158 149.25696842 39.625 150.5625 C39.90134277 151.25923828 40.17768555 151.95597656 40.46240234 152.67382812 C41.02822929 154.09993302 41.59934662 155.52395043 42.17578125 156.94580078 C43.3787353 159.94392144 44.49501502 162.97375897 45.625 166 C47.23884451 170.18155879 48.93987384 174.2288709 51.06640625 178.17578125 C52 180 52 180 52.71484375 181.98046875 C55.47334652 189.07572215 61.52118743 192.44893072 68 196 C68.66 196 69.32 196 70 196 C70 196.66 70 197.32 70 198 C71.84545482 199.32642967 71.84545482 199.32642967 74.25390625 200.6328125 C80.31043048 204.14881618 86.11879793 207.98103112 91.9375 211.875 C93.44860352 212.87853516 93.44860352 212.87853516 94.99023438 213.90234375 C101.04257031 217.94242394 106.93835619 222.12177303 112.72485352 226.53564453 C114.96949679 228.27060906 114.96949679 228.27060906 118 228 C117.01535858 224.99425252 116.01478453 221.99564394 115 219 C114.63648438 217.92492187 114.27296875 216.84984375 113.8984375 215.7421875 C111.50171045 208.83033595 108.8350383 202.19620062 105.625 195.62109375 C104.26708493 192.59516282 103.05545274 189.58274018 101.87890625 186.484375 C98.08712316 176.51799043 93.9884459 166.67563722 89.9375 156.8125 C88.72790555 153.86440098 87.51871988 150.91613507 86.30995178 147.96769714 C85.56363029 146.14757382 84.81679235 144.32766214 84.06932068 142.50801086 C83.72538773 141.66981308 83.38145477 140.8316153 83.02709961 139.96801758 C82.52157059 138.7473912 82.52157059 138.7473912 82.00582886 137.50210571 C81.30554641 135.76007902 80.63838428 134.00452491 79.99734497 132.23983765 C79.50281326 130.90041611 79.50281326 130.90041611 78.99829102 129.53393555 C78.71236588 128.72852829 78.42644073 127.92312103 78.1318512 127.0933075 C75.80980713 122.79879221 71.36233029 121.63262421 67 120 C65.45861818 119.38535737 63.91833874 118.76794623 62.37890625 118.1484375 C55.32979556 114.75437485 55.32979556 114.75437485 48 113 Z M294 126 C294 126.66 294 127.32 294 128 C293.236875 128.28875 292.47375 128.5775 291.6875 128.875 C288.84970692 129.96269013 288.84970692 129.96269013 286 132 C286.53164548 136.78480933 287.23111619 137.23111619 291 141 C294.63 138.69 298.26 136.38 302 134 C301.4635601 128.25077841 301.4635601 128.25077841 299 125 C296.0745356 124.7763932 296.0745356 124.7763932 294 126 Z M274 140 C272.32819726 140.94934513 270.66266064 141.90973313 269 142.875 C268.071875 143.40867188 267.14375 143.94234375 266.1875 144.4921875 C265.465625 144.98976562 264.74375 145.48734375 264 146 C264 146.66 264 147.32 264 148 C263.34 148 262.68 148 262 148 C263.12451727 150.9719385 264.22293791 153.33440687 266 156 C269.76119476 155.37606349 272.18960042 153.65226285 275.25 151.4375 C276.14203125 150.79683594 277.0340625 150.15617188 277.953125 149.49609375 C278.62859375 149.00238281 279.3040625 148.50867188 280 148 C277.88673474 143.29157376 277.88673474 143.29157376 274 140 Z M-41.5 148.375 C-42.60021484 148.56449219 -42.60021484 148.56449219 -43.72265625 148.7578125 C-47.96230466 149.51624692 -51.93901289 150.52210912 -56 152 C-55.51277554 168.81045144 -55.51277554 168.81045144 -48.734375 183.48828125 C-46.52608888 184.94311126 -44.47458833 186.07996075 -42 187 C-42.54492254 182.27733798 -43.2321907 177.61903118 -44.0625 172.9375 C-44.81650716 168.53074704 -45.20275927 164.46070391 -45 160 C-39.30049291 157.27142939 -33.75909248 155.95902575 -27.5625 154.8125 C-26.64017578 154.63525391 -25.71785156 154.45800781 -24.76757812 154.27539062 C-22.51296752 153.84315958 -20.25724374 153.4182211 -18 153 C-26.17644627 146.39439808 -31.41994012 146.5325989 -41.5 148.375 Z M250 156 C248.48869662 157.06750794 246.99121297 158.15460282 245.5 159.25 C244.6646875 159.85328125 243.829375 160.4565625 242.96875 161.078125 C242.3190625 161.71234375 241.669375 162.3465625 241 163 C241 166.76687864 241.23537317 167.91190305 243 171 C248.26170694 169.58832253 251.72171358 167.25149768 256 164 C255.29231642 161.04199472 255.29231642 161.04199472 254 158 C251.98942034 156.78586335 251.98942034 156.78586335 250 156 Z M-33 167 C-33.21315737 173.77290356 -32.47936156 179.82384515 -31.0625 186.4375 C-30.78889648 187.78231445 -30.78889648 187.78231445 -30.50976562 189.15429688 C-29.64273292 193.70627762 -29.64273292 193.70627762 -28 198 C-26.73679362 198.75792383 -25.43791028 199.45686417 -24.125 200.125 C-20.53088956 202.06289027 -17.27216955 204.18338113 -14 206.625 C-8.55980793 210.67637012 -2.91953345 214.34447218 2.81054688 217.96728516 C7.10760783 220.70297283 11.19349663 223.59472129 15.20043945 226.7421875 C17.63669993 228.44502483 20.13276636 229.28319159 23 230 C23 230.66 23 231.32 23 232 C24.39798828 232.76570313 24.39798828 232.76570313 25.82421875 233.546875 C32.00815072 237.07877067 37.82044192 241.210788 43.70117188 245.21875 C44.61060547 245.83234375 45.52003906 246.4459375 46.45703125 247.078125 C47.28178955 247.63918945 48.10654785 248.20025391 48.95629883 248.77832031 C50.88927581 250.17103091 50.88927581 250.17103091 53 250 C53 250.66 53 251.32 53 252 C55.17751179 253.59777524 55.17751179 253.59777524 57.875 255.125 C58.77992188 255.66382813 59.68484375 256.20265625 60.6171875 256.7578125 C62.84772022 258.1540893 62.84772022 258.1540893 65 258 C65 258.66 65 259.32 65 260 C66.78502283 261.27672321 66.78502283 261.27672321 69.140625 262.54296875 C73.40764958 265.01955462 77.53656915 267.64385883 81.609375 270.42578125 C82.18884888 270.8209494 82.76832275 271.21611755 83.36535645 271.6232605 C85.16171245 272.85086882 86.95609318 274.08131598 88.75 275.3125 C96.04342654 280.31247796 103.3530364 285.28318019 110.765625 290.10546875 C111.361474 290.49728836 111.957323 290.88910797 112.57122803 291.2928009 C115.54269591 293.3592574 115.54269591 293.3592574 119 294 C119 294.66 119 295.32 119 296 C121.30458177 297.56601235 123.60925305 299.01338307 126 300.4375 C131.8390206 303.9979103 137.56652203 307.66635103 143.1875 311.5625 C143.84741943 312.01947266 144.50733887 312.47644531 145.18725586 312.94726562 C147.74576703 314.72435181 150.29889297 316.50904009 152.85058594 318.29589844 C160.09788989 323.47818825 160.09788989 323.47818825 167.6875 328.125 C171.62452954 330.35350729 175.2102213 332.94650128 178.86328125 335.609375 C180.8544773 337.18182432 180.8544773 337.18182432 183 337 C183 337.66 183 338.32 183 339 C183.58007812 339.31453125 184.16015625 339.6290625 184.7578125 339.953125 C188.40997161 341.95397785 192.01122001 343.94046001 195.4375 346.3125 C197.76701788 348.18333019 197.76701788 348.18333019 200 348 C200 348.66 200 349.32 200 350 C201.84700604 351.48964838 201.84700604 351.48964838 204.1875 352.9375 C204.96480469 353.44152344 205.74210938 353.94554687 206.54296875 354.46484375 C208.09434938 355.43414834 209.65593499 356.38747396 211.23095703 357.31787109 C214.46274083 359.28110425 217.61276301 361.35717266 220.76171875 363.44921875 C222.05780183 364.3055518 223.35403002 365.16166526 224.65039062 366.01757812 C226.67958404 367.35860815 228.70781963 368.70100197 230.73364258 370.04711914 C232.69862186 371.35197525 234.66730917 372.65106228 236.63671875 373.94921875 C237.24505051 374.35540939 237.85338226 374.76160004 238.48014832 375.18009949 C241.48548466 377.32314876 241.48548466 377.32314876 245 378 C245 378.66 245 379.32 245 380 C246.5159375 380.84691406 246.5159375 380.84691406 248.0625 381.7109375 C251.82071232 383.859835 255.41474587 386.20138364 259 388.625 C260.32287453 389.5130836 261.64579242 390.40110261 262.96875 391.2890625 C263.63777344 391.73926758 264.30679687 392.18947266 264.99609375 392.65332031 C268.1578968 394.77813825 271.32920259 396.88863865 274.5 399 C275.73833144 399.82544554 276.97661247 400.65096672 278.21484375 401.4765625 C279.14079346 402.0938623 279.14079346 402.0938623 280.08544922 402.72363281 C291.54272461 410.36181641 291.54272461 410.36181641 303 418 C306.81980611 416.51385096 308.3062149 414.49771819 310.49609375 411.08984375 C311.45805664 409.60387695 311.45805664 409.60387695 312.43945312 408.08789062 C313.09880859 407.04826172 313.75816406 406.00863281 314.4375 404.9375 C315.09298828 403.92494141 315.74847656 402.91238281 316.42382812 401.86914062 C320.17771589 396.0293413 323.72763652 390.12301572 327 384 C321.57429344 378.62815344 321.57429344 378.62815344 315 376 C315 375.34 315 374.68 315 374 C314.51273437 373.75507813 314.02546875 373.51015625 313.5234375 373.2578125 C307.78921502 370.23431337 302.6084331 366.67046505 297.37548828 362.87231445 C292.61083451 359.4169481 287.75276041 356.13067073 282.8359375 352.89453125 C279.14903069 350.43151499 275.55058561 347.85220445 271.9609375 345.25 C270.10649501 343.82082417 270.10649501 343.82082417 268 344 C268 343.34 268 342.68 268 342 C267.51273437 341.75507813 267.02546875 341.51015625 266.5234375 341.2578125 C261.54869171 338.63476472 256.97467336 335.62625925 252.4375 332.3125 C247.33396834 328.58805538 242.13055192 325.12419449 236.75 321.8125 C231.6049941 318.6427926 226.57190891 315.39530552 221.6484375 311.88671875 C211.39296203 304.58082693 200.93483097 297.59169095 190.35400391 290.76708984 C183.85862357 286.57647871 177.42523123 282.29724274 171 278 C169.00022471 276.66632967 167.00022602 275.33299424 165 274 C161 271.33333333 157 268.66666667 153 266 C151.53433594 265.02546875 151.53433594 265.02546875 150.0390625 264.03125 C147.90196938 262.60285871 145.77226275 261.16653382 143.6484375 259.71875 C142.56820312 258.9865625 141.48796875 258.254375 140.375 257.5 C139.39273438 256.8296875 138.41046875 256.159375 137.3984375 255.46875 C135.1844704 253.82592122 135.1844704 253.82592122 133 254 C133 253.34 133 252.68 133 252 C130.83024596 250.5524054 130.83024596 250.5524054 128 249.0625 C122.71069385 246.06961858 117.68204081 242.83648777 112.6875 239.375 C112.03072266 238.9200415 111.37394531 238.46508301 110.69726562 237.99633789 C105.5379597 234.40343577 105.5379597 234.40343577 103.06884766 232.55175781 C99.4386466 229.70169625 99.4386466 229.70169625 95 229 C95 228.34 95 227.68 95 227 C92.65333465 225.41523898 90.30607733 223.94515424 87.875 222.5 C82.2723844 219.09691589 76.85059557 215.56157612 71.5625 211.6875 C67.23800165 208.52932765 62.90102225 205.7023083 58.15625 203.21484375 C54.71632574 201.27677048 51.5572594 198.95802068 48.359375 196.6484375 C44.04755292 193.31097886 44.04755292 193.31097886 39 192 C39 191.34 39 190.68 39 190 C37.53451392 188.83809533 37.53451392 188.83809533 35.58984375 187.75 C34.85443359 187.31131592 34.11902344 186.87263184 33.36132812 186.4206543 C32.56146484 185.95183838 31.76160156 185.48302246 30.9375 185 C24.8562126 181.36771878 18.86778583 177.65585165 13 173.6875 C11.77489062 172.87086712 10.54963534 172.05445307 9.32421875 171.23828125 C7.27789051 169.87115983 5.27088898 168.47741828 3.26953125 167.04296875 C-6.61104568 160.33548648 -22.38959078 161.69479539 -33 167 Z M103 300 C107.32251081 313.68795089 113.16776593 326.85060907 118.66723633 340.09552002 C121.9832991 348.08224137 125.25364259 356.08443732 128.4375 364.125 C130.73907618 369.93445584 133.15065041 375.65177061 135.79296875 381.31640625 C138.69074163 387.75902751 141.18297943 394.38490593 143.77050781 400.95703125 C147.38784414 410.15017073 147.38784414 410.15017073 151.375 419.1875 C154.14672977 425.16013061 156.55167405 431.27149326 158.97021484 437.39331055 C161.13875654 442.87815565 163.37558641 448.33043423 165.65234375 453.77124023 C167.0915742 457.21939653 168.515881 460.6734534 169.9375 464.12890625 C170.70147005 465.9830028 171.46544059 467.83709916 172.22949219 469.69116211 C172.74379444 470.9402517 173.2574649 472.18960161 173.77050781 473.43920898 C176.70474524 480.58372292 179.7319762 487.66034698 182.96386719 494.67504883 C184.57737268 498.29555137 185.78681905 502.01952602 187.0078125 505.78515625 C187.90911909 508.32404272 187.90911909 508.32404272 191 510 C193.33267581 509.55320158 193.33267581 509.55320158 195.83203125 508.47265625 C196.78972412 508.0955249 197.74741699 507.71839355 198.73413086 507.32983398 C199.74999268 506.91161377 200.76585449 506.49339355 201.8125 506.0625 C202.84318604 505.6487915 203.87387207 505.23508301 204.93579102 504.80883789 C212.83696034 501.59208786 220.49056013 498.04754905 228 494 C227.33970367 490.07618567 226.17396878 486.60901226 224.70703125 482.9140625 C224.24441895 481.74286865 223.78180664 480.5716748 223.30517578 479.36499023 C222.80778192 478.11826109 222.3102203 476.87159886 221.8125 475.625 C221.3068112 474.3504678 220.80144104 473.07580914 220.29638672 471.80102539 C219.30851256 469.30959095 218.31781867 466.81933714 217.32568359 464.32958984 C216.24862751 461.6244534 215.17787995 458.91708336 214.11328125 456.20703125 C211.63455021 449.91636541 208.99337412 443.73929707 206.1484375 437.60546875 C204.59198343 434.07432975 203.31936648 430.46393765 202.03125 426.828125 C199.723315 420.49878809 197.21823676 414.20792625 194.0625 408.25 C191.74095676 403.756089 190.09157463 399.00797738 188.35180664 394.26879883 C186.25653795 388.59435825 183.92034171 383.04972027 181.50390625 377.50390625 C179.92119316 373.8163903 178.41712922 370.10469099 176.9375 366.375 C174.70760624 360.75642141 172.44380057 355.15516601 170.07421875 349.59375 C169.42612103 348.02888859 168.81298537 346.44795681 168.26953125 344.84375 C166.81542938 340.68413736 165.04513643 339.02679724 161.109375 337.109375 C157.54404869 335.23427746 154.38653829 332.7595593 151.13671875 330.390625 C149.1455227 328.81817568 149.1455227 328.81817568 147 329 C147 328.34 147 327.68 147 327 C146.01 327 145.02 327 144 327 C144 326.34 144 325.68 144 325 C143.46632813 324.72027344 142.93265625 324.44054687 142.3828125 324.15234375 C137.26515157 321.39872342 132.53885818 318.33975888 127.8125 314.96484375 C124.52680887 312.66942342 121.18311773 310.48050853 117.8125 308.3125 C117.24249268 307.94415039 116.67248535 307.57580078 116.08520508 307.19628906 C109.89619536 302.60249201 109.89619536 302.60249201 103 300 Z " fill="#171717" transform="translate(136,0)"/>
<path d="M0 0 C4.9775801 1.85439259 9.43536751 4.29848281 14 7 C14 7.66 14 8.32 14 9 C14.515625 9.0825 15.03125 9.165 15.5625 9.25 C19.04455732 10.32140225 21.87200885 12.13523605 25 14 C25 14.66 25 15.32 25 16 C25.6703125 16.22558594 26.340625 16.45117188 27.03125 16.68359375 C30.86177925 18.38213106 34.08456043 20.65370334 37.5 23.0625 C38.92184032 24.0547372 40.34371585 25.04692394 41.765625 26.0390625 C42.47396484 26.53567383 43.18230469 27.03228516 43.91210938 27.54394531 C45.86445374 28.90547265 47.82722409 30.24961152 49.796875 31.5859375 C50.38146484 31.98417725 50.96605469 32.38241699 51.56835938 32.79272461 C53.15408209 33.87220396 54.74106347 34.9498337 56.328125 36.02734375 C58.8344935 37.87780587 60.9970977 39.61284786 63 42 C62.81623488 45.06275204 62.36973455 47.2605309 61 50 C60.34 50 59.68 50 59 50 C58.90976562 50.54140625 58.81953125 51.0828125 58.7265625 51.640625 C57.14344568 56.78149896 53.64419846 61.12111255 50 65 C45.4687371 66.1924376 43.01113381 65.16461251 39.0625 63 C38.051875 62.34 37.04125 61.68 36 61 C36 60.34 36 59.68 36 59 C35.47792969 58.92136719 34.95585937 58.84273438 34.41796875 58.76171875 C31.02002686 57.69128471 28.2562847 55.76551172 25.3125 53.8125 C24.6947168 53.40902344 24.07693359 53.00554687 23.44042969 52.58984375 C19.1629369 49.7901924 14.90581593 46.95882281 10.671875 44.09375 C8.98595497 42.94488557 8.98595497 42.94488557 7 42 C7 41.34 7 40.68 7 40 C6.34 39.773125 5.68 39.54625 5 39.3125 C1.11341372 37.6121185 -2.63679817 35.60376916 -6 33 C-6 32.34 -6 31.68 -6 31 C-8.475 30.01 -8.475 30.01 -11 29 C-11 28.34 -11 27.68 -11 27 C-12.32 26.34 -13.64 25.68 -15 25 C-14.5910338 15.59377729 -8.55869383 7.45991832 -2 1 C-1.34 0.67 -0.68 0.34 0 0 Z M2 14 C0.3516367 15.75244247 0.3516367 15.75244247 -1 18 C-0.58958598 21.48830522 -0.00618637 21.99470598 2.81640625 24.41015625 C4.05685823 25.30580348 5.30624185 26.18916126 6.5625 27.0625 C7.22999268 27.53856689 7.89748535 28.01463379 8.58520508 28.50512695 C10.71438839 30.01682477 12.85528937 31.51042918 15 33 C15.68739258 33.47985352 16.37478516 33.95970703 17.08300781 34.45410156 C21.07542703 37.23681205 25.08779577 39.98844744 29.11621094 42.71875 C30.94068723 43.95965871 32.75620378 45.21275066 34.5703125 46.46875 C35.64023437 47.2009375 36.71015625 47.933125 37.8125 48.6875 C39.21435547 49.65236328 39.21435547 49.65236328 40.64453125 50.63671875 C42.97915624 52.25046155 42.97915624 52.25046155 46 52 C46 51.34 46 50.68 46 50 C46.66 50 47.32 50 48 50 C49.01111093 46.95086772 49.01111093 46.95086772 48 44 C47.34 44 46.68 44 46 44 C46 43.34 46 42.68 46 42 C45.01 42 44.02 42 43 42 C43 41.34 43 40.68 43 40 C41.28198718 38.63362347 41.28198718 38.63362347 39.125 37.375 C38.40570313 36.92898438 37.68640625 36.48296875 36.9453125 36.0234375 C35.07135238 34.84480002 35.07135238 34.84480002 33 35 C33 34.34 33 33.68 33 33 C31.88625 32.34 30.7725 31.68 29.625 31 C28.99851562 30.62875 28.37203125 30.2575 27.7265625 29.875 C26.02527333 28.84931652 26.02527333 28.84931652 24 29 C24 28.34 24 27.68 24 27 C23.46632813 26.72027344 22.93265625 26.44054687 22.3828125 26.15234375 C17.02160163 23.26767839 12.08056423 20.04295166 7.1640625 16.453125 C4.97459652 14.84357451 4.97459652 14.84357451 2 14 Z " fill="#1B1B1B" transform="translate(230,236)"/>
<path d="M0 0 C5.28 0 10.56 0 16 0 C16 0.33 16 0.66 16 1 C11.38 1.33 6.76 1.66 2 2 C1.67 3.32 1.34 4.64 1 6 C0.67 5.67 0.34 5.34 0 5 C0 3.35 0 1.7 0 0 Z " fill="#5B5B5B" transform="translate(11,105)"/>
<path d="M0 0 C0.85448418 2.39255571 1.15624337 3.583351 0.25 6 C-1.06034273 8.09654837 -2.47286435 10.05637281 -4 12 C-3.33501617 7.61110675 -1.81242323 4.0188515 0 0 Z " fill="#666565" transform="translate(198,337)"/>
</svg>
